<svg width="183" height="48" viewBox="0 0 183 48" fill="none" xmlns="http://www.w3.org/2000/svg">
<rect width="183" height="48" rx="8" fill="black" fill-opacity="0.06"/>
<path d="M23.883 15.007L24 15C24.2449 15 24.4813 15.09 24.6644 15.2527C24.8474 15.4155 24.9643 15.6397 24.993 15.883L25 16V23H32C32.2449 23 32.4813 23.09 32.6644 23.2527C32.8474 23.4155 32.9643 23.6397 32.993 23.883L33 24C33 24.2449 32.91 24.4813 32.7473 24.6644C32.5845 24.8474 32.3603 24.9643 32.117 24.993L32 25H25V32C25 32.2449 24.91 32.4813 24.7473 32.6644C24.5845 32.8474 24.3603 32.9643 24.117 32.993L24 33C23.7551 33 23.5187 32.91 23.3356 32.7473C23.1526 32.5845 23.0357 32.3603 23.007 32.117L23 32V25H16C15.7551 25 15.5187 24.91 15.3356 24.7473C15.1526 24.5845 15.0357 24.3603 15.007 24.117L15 24C15 23.7551 15.09 23.5187 15.2527 23.3356C15.4155 23.1526 15.6397 23.0357 15.883 23.007L16 23H23V16C23 15.7551 23.09 15.5187 23.2527 15.3356C23.4155 15.1526 23.6397 15.0357 23.883 15.007L24 15L23.883 15.007Z" fill="black"/>
<path d="M52.3504 27.872H47.9024L47.1664 30H44.8144L48.8304 18.816H51.4384L55.4544 30H53.0864L52.3504 27.872ZM51.7424 26.08L50.1264 21.408L48.5104 26.08H51.7424ZM56.3796 25.536C56.3796 24.64 56.5556 23.8453 56.9076 23.152C57.2702 22.4587 57.7609 21.9253 58.3796 21.552C58.9982 21.1787 59.6862 20.992 60.4436 20.992C61.0196 20.992 61.5689 21.12 62.0916 21.376C62.6142 21.6213 63.0302 21.952 63.3396 22.368V18.16H65.6116V30H63.3396V28.688C63.0622 29.1253 62.6729 29.4773 62.1716 29.744C61.6702 30.0107 61.0889 30.144 60.4276 30.144C59.6809 30.144 58.9982 29.952 58.3796 29.568C57.7609 29.184 57.2702 28.6453 56.9076 27.952C56.5556 27.248 56.3796 26.4427 56.3796 25.536ZM63.3556 25.568C63.3556 25.024 63.2489 24.56 63.0356 24.176C62.8222 23.7813 62.5342 23.4827 62.1716 23.28C61.8089 23.0667 61.4196 22.96 61.0036 22.96C60.5876 22.96 60.2036 23.0613 59.8516 23.264C59.4996 23.4667 59.2116 23.7653 58.9876 24.16C58.7742 24.544 58.6676 25.0027 58.6676 25.536C58.6676 26.0693 58.7742 26.5387 58.9876 26.944C59.2116 27.3387 59.4996 27.6427 59.8516 27.856C60.2142 28.0693 60.5982 28.176 61.0036 28.176C61.4196 28.176 61.8089 28.0747 62.1716 27.872C62.5342 27.6587 62.8222 27.36 63.0356 26.976C63.2489 26.5813 63.3556 26.112 63.3556 25.568ZM67.2233 25.536C67.2233 24.64 67.3993 23.8453 67.7513 23.152C68.114 22.4587 68.6046 21.9253 69.2233 21.552C69.842 21.1787 70.53 20.992 71.2873 20.992C71.8633 20.992 72.4126 21.12 72.9353 21.376C73.458 21.6213 73.874 21.952 74.1833 22.368V18.16H76.4553V30H74.1833V28.688C73.906 29.1253 73.5166 29.4773 73.0153 29.744C72.514 30.0107 71.9326 30.144 71.2713 30.144C70.5246 30.144 69.842 29.952 69.2233 29.568C68.6046 29.184 68.114 28.6453 67.7513 27.952C67.3993 27.248 67.2233 26.4427 67.2233 25.536ZM74.1993 25.568C74.1993 25.024 74.0926 24.56 73.8793 24.176C73.666 23.7813 73.378 23.4827 73.0153 23.28C72.6526 23.0667 72.2633 22.96 71.8473 22.96C71.4313 22.96 71.0473 23.0613 70.6953 23.264C70.3433 23.4667 70.0553 23.7653 69.8313 24.16C69.618 24.544 69.5113 25.0027 69.5113 25.536C69.5113 26.0693 69.618 26.5387 69.8313 26.944C70.0553 27.3387 70.3433 27.6427 70.6953 27.856C71.058 28.0693 71.442 28.176 71.8473 28.176C72.2633 28.176 72.6526 28.0747 73.0153 27.872C73.378 27.6587 73.666 27.36 73.8793 26.976C74.0926 26.5813 74.1993 26.112 74.1993 25.568ZM86.3116 30.112C85.5329 30.112 84.8289 29.9787 84.1996 29.712C83.5809 29.4453 83.0902 29.0613 82.7276 28.56C82.3649 28.0587 82.1782 27.4667 82.1676 26.784H84.5676C84.5996 27.2427 84.7596 27.6053 85.0476 27.872C85.3462 28.1387 85.7516 28.272 86.2636 28.272C86.7862 28.272 87.1969 28.1493 87.4956 27.904C87.7942 27.648 87.9436 27.3173 87.9436 26.912C87.9436 26.5813 87.8422 26.3093 87.6396 26.096C87.4369 25.8827 87.1809 25.7173 86.8716 25.6C86.5729 25.472 86.1569 25.3333 85.6236 25.184C84.8982 24.9707 84.3062 24.7627 83.8476 24.56C83.3996 24.3467 83.0102 24.032 82.6796 23.616C82.3596 23.1893 82.1996 22.624 82.1996 21.92C82.1996 21.2587 82.3649 20.6827 82.6956 20.192C83.0262 19.7013 83.4902 19.328 84.0876 19.072C84.6849 18.8053 85.3676 18.672 86.1356 18.672C87.2876 18.672 88.2209 18.9547 88.9356 19.52C89.6609 20.0747 90.0609 20.8533 90.1356 21.856H87.6716C87.6502 21.472 87.4849 21.1573 87.1756 20.912C86.8769 20.656 86.4769 20.528 85.9756 20.528C85.5382 20.528 85.1862 20.64 84.9196 20.864C84.6636 21.088 84.5356 21.4133 84.5356 21.84C84.5356 22.1387 84.6316 22.3893 84.8236 22.592C85.0262 22.784 85.2716 22.944 85.5596 23.072C85.8582 23.1893 86.2742 23.328 86.8076 23.488C87.5329 23.7013 88.1249 23.9147 88.5836 24.128C89.0422 24.3413 89.4369 24.6613 89.7676 25.088C90.0982 25.5147 90.2636 26.0747 90.2636 26.768C90.2636 27.3653 90.1089 27.92 89.7996 28.432C89.4902 28.944 89.0369 29.3547 88.4396 29.664C87.8422 29.9627 87.1329 30.112 86.3116 30.112ZM96.1416 30.144C95.2882 30.144 94.5202 29.9573 93.8376 29.584C93.1549 29.2 92.6162 28.6613 92.2216 27.968C91.8376 27.2747 91.6456 26.4747 91.6456 25.568C91.6456 24.6613 91.8429 23.8613 92.2376 23.168C92.6429 22.4747 93.1922 21.9413 93.8856 21.568C94.5789 21.184 95.3522 20.992 96.2056 20.992C97.0589 20.992 97.8322 21.184 98.5256 21.568C99.2189 21.9413 99.7629 22.4747 100.158 23.168C100.563 23.8613 100.766 24.6613 100.766 25.568C100.766 26.4747 100.558 27.2747 100.142 27.968C99.7362 28.6613 99.1816 29.2 98.4776 29.584C97.7842 29.9573 97.0056 30.144 96.1416 30.144ZM96.1416 28.192C96.5469 28.192 96.9256 28.096 97.2776 27.904C97.6402 27.7013 97.9282 27.4027 98.1416 27.008C98.3549 26.6133 98.4616 26.1333 98.4616 25.568C98.4616 24.7253 98.2376 24.08 97.7896 23.632C97.3522 23.1733 96.8136 22.944 96.1736 22.944C95.5336 22.944 94.9949 23.1733 94.5576 23.632C94.1309 24.08 93.9176 24.7253 93.9176 25.568C93.9176 26.4107 94.1256 27.0613 94.5416 27.52C94.9682 27.968 95.5016 28.192 96.1416 28.192ZM113.417 21.008C114.505 21.008 115.379 21.344 116.041 22.016C116.713 22.6773 117.049 23.6053 117.049 24.8V30H114.809V25.104C114.809 24.4107 114.633 23.8827 114.281 23.52C113.929 23.1467 113.449 22.96 112.841 22.96C112.233 22.96 111.747 23.1467 111.385 23.52C111.033 23.8827 110.857 24.4107 110.857 25.104V30H108.617V25.104C108.617 24.4107 108.441 23.8827 108.089 23.52C107.737 23.1467 107.257 22.96 106.649 22.96C106.03 22.96 105.539 23.1467 105.177 23.52C104.825 23.8827 104.649 24.4107 104.649 25.104V30H102.409V21.136H104.649V22.208C104.937 21.8347 105.305 21.5413 105.753 21.328C106.211 21.1147 106.713 21.008 107.257 21.008C107.95 21.008 108.569 21.1573 109.113 21.456C109.657 21.744 110.078 22.16 110.377 22.704C110.665 22.192 111.081 21.7813 111.625 21.472C112.179 21.1627 112.777 21.008 113.417 21.008ZM127.414 25.376C127.414 25.696 127.393 25.984 127.35 26.24H120.87C120.924 26.88 121.148 27.3813 121.542 27.744C121.937 28.1067 122.422 28.288 122.998 28.288C123.83 28.288 124.422 27.9307 124.774 27.216H127.19C126.934 28.0693 126.444 28.7733 125.718 29.328C124.993 29.872 124.102 30.144 123.046 30.144C122.193 30.144 121.425 29.9573 120.742 29.584C120.07 29.2 119.542 28.6613 119.158 27.968C118.785 27.2747 118.598 26.4747 118.598 25.568C118.598 24.6507 118.785 23.8453 119.158 23.152C119.532 22.4587 120.054 21.9253 120.726 21.552C121.398 21.1787 122.172 20.992 123.046 20.992C123.889 20.992 124.641 21.1733 125.302 21.536C125.974 21.8987 126.492 22.416 126.854 23.088C127.228 23.7493 127.414 24.512 127.414 25.376ZM125.094 24.736C125.084 24.16 124.876 23.7013 124.47 23.36C124.065 23.008 123.569 22.832 122.982 22.832C122.428 22.832 121.958 23.0027 121.574 23.344C121.201 23.6747 120.972 24.1387 120.886 24.736H125.094ZM131.657 22.976V27.264C131.657 27.5627 131.727 27.7813 131.865 27.92C132.015 28.048 132.26 28.112 132.601 28.112H133.641V30H132.233C130.345 30 129.401 29.0827 129.401 27.248V22.976H128.345V21.136H129.401V18.944H131.657V21.136H133.641V22.976H131.657ZM140.244 21.008C140.916 21.008 141.514 21.1573 142.036 21.456C142.559 21.744 142.964 22.176 143.252 22.752C143.551 23.3173 143.7 24 143.7 24.8V30H141.46V25.104C141.46 24.4 141.284 23.8613 140.932 23.488C140.58 23.104 140.1 22.912 139.492 22.912C138.874 22.912 138.383 23.104 138.02 23.488C137.668 23.8613 137.492 24.4 137.492 25.104V30H135.252V18.16H137.492V22.24C137.78 21.856 138.164 21.5573 138.644 21.344C139.124 21.12 139.658 21.008 140.244 21.008ZM146.967 20.08C146.572 20.08 146.241 19.9573 145.975 19.712C145.719 19.456 145.591 19.1413 145.591 18.768C145.591 18.3947 145.719 18.0853 145.975 17.84C146.241 17.584 146.572 17.456 146.967 17.456C147.361 17.456 147.687 17.584 147.943 17.84C148.209 18.0853 148.343 18.3947 148.343 18.768C148.343 19.1413 148.209 19.456 147.943 19.712C147.687 19.9573 147.361 20.08 146.967 20.08ZM148.071 21.136V30H145.831V21.136H148.071ZM155.196 21.008C156.252 21.008 157.105 21.344 157.756 22.016C158.406 22.6773 158.732 23.6053 158.732 24.8V30H156.492V25.104C156.492 24.4 156.316 23.8613 155.964 23.488C155.612 23.104 155.132 22.912 154.524 22.912C153.905 22.912 153.414 23.104 153.052 23.488C152.7 23.8613 152.524 24.4 152.524 25.104V30H150.284V21.136H152.524V22.24C152.822 21.856 153.201 21.5573 153.66 21.344C154.129 21.12 154.641 21.008 155.196 21.008ZM164.334 20.992C164.995 20.992 165.576 21.1253 166.078 21.392C166.579 21.648 166.974 21.984 167.262 22.4V21.136H169.518V30.064C169.518 30.8853 169.352 31.616 169.022 32.256C168.691 32.9067 168.195 33.4187 167.534 33.792C166.872 34.176 166.072 34.368 165.134 34.368C163.875 34.368 162.84 34.0747 162.03 33.488C161.23 32.9013 160.776 32.1013 160.67 31.088H162.894C163.011 31.4933 163.262 31.8133 163.646 32.048C164.04 32.2933 164.515 32.416 165.07 32.416C165.72 32.416 166.248 32.2187 166.654 31.824C167.059 31.44 167.262 30.8533 167.262 30.064V28.688C166.974 29.104 166.574 29.4507 166.062 29.728C165.56 30.0053 164.984 30.144 164.334 30.144C163.587 30.144 162.904 29.952 162.286 29.568C161.667 29.184 161.176 28.6453 160.814 27.952C160.462 27.248 160.286 26.4427 160.286 25.536C160.286 24.64 160.462 23.8453 160.814 23.152C161.176 22.4587 161.662 21.9253 162.27 21.552C162.888 21.1787 163.576 20.992 164.334 20.992ZM167.262 25.568C167.262 25.024 167.155 24.56 166.942 24.176C166.728 23.7813 166.44 23.4827 166.078 23.28C165.715 23.0667 165.326 22.96 164.91 22.96C164.494 22.96 164.11 23.0613 163.758 23.264C163.406 23.4667 163.118 23.7653 162.894 24.16C162.68 24.544 162.574 25.0027 162.574 25.536C162.574 26.0693 162.68 26.5387 162.894 26.944C163.118 27.3387 163.406 27.6427 163.758 27.856C164.12 28.0693 164.504 28.176 164.91 28.176C165.326 28.176 165.715 28.0747 166.078 27.872C166.44 27.6587 166.728 27.36 166.942 26.976C167.155 26.5813 167.262 26.112 167.262 25.568Z" fill="black"/>
</svg>
