<svg width="48" height="48" viewBox="0 0 48 48" fill="none" xmlns="http://www.w3.org/2000/svg">
<rect width="48" height="48" rx="8" fill="black" fill-opacity="0.06"/>
<path d="M22.2948 31.715C22.4846 31.8963 22.7381 31.9957 23.0005 31.9918C23.263 31.9878 23.5133 31.8809 23.6976 31.694C23.8819 31.5071 23.9853 31.2552 23.9855 30.9928C23.9858 30.7303 23.8828 30.4783 23.6988 30.291L18.3288 24.999H31.9988C32.2641 24.999 32.5184 24.8937 32.7059 24.7061C32.8935 24.5186 32.9988 24.2643 32.9988 23.999C32.9988 23.7338 32.8935 23.4795 32.7059 23.2919C32.5184 23.1044 32.2641 22.999 31.9988 22.999H18.3358L23.6998 17.714C23.8838 17.5268 23.9868 17.2748 23.9865 17.0123C23.9863 16.7499 23.8829 16.498 23.6986 16.3111C23.5143 16.1242 23.264 16.0172 23.0015 16.0133C22.7391 16.0094 22.4856 16.1088 22.2958 16.29L15.3698 23.112C15.2519 23.2283 15.1583 23.3669 15.0944 23.5197C15.0305 23.6725 14.9976 23.8364 14.9976 24.002C14.9976 24.1677 15.0305 24.3316 15.0944 24.4844C15.1583 24.6372 15.2519 24.7757 15.3698 24.892L22.2938 31.715H22.2948Z" fill="black"/>
</svg>
