<svg width="48" height="48" viewBox="0 0 48 48" fill="none" xmlns="http://www.w3.org/2000/svg">
<rect width="48" height="48" rx="8" fill="#F2F2F2"/>
<rect width="48" height="48" rx="8" fill="#E3964A" fill-opacity="0.24"/>
<path d="M23.883 15.007L24 15C24.2449 15 24.4813 15.09 24.6644 15.2527C24.8474 15.4155 24.9643 15.6397 24.993 15.883L25 16V23H32C32.2449 23 32.4813 23.09 32.6644 23.2527C32.8474 23.4155 32.9643 23.6397 32.993 23.883L33 24C33 24.2449 32.91 24.4813 32.7473 24.6644C32.5845 24.8474 32.3603 24.9643 32.117 24.993L32 25H25V32C25 32.2449 24.91 32.4813 24.7473 32.6644C24.5845 32.8474 24.3603 32.9643 24.117 32.993L24 33C23.7551 33 23.5187 32.91 23.3356 32.7473C23.1526 32.5845 23.0357 32.3603 23.007 32.117L23 32V25H16C15.7551 25 15.5187 24.91 15.3356 24.7473C15.1526 24.5845 15.0357 24.3603 15.007 24.117L15 24C15 23.7551 15.09 23.5187 15.2527 23.3356C15.4155 23.1526 15.6397 23.0357 15.883 23.007L16 23H23V16C23 15.7551 23.09 15.5187 23.2527 15.3356C23.4155 15.1526 23.6397 15.0357 23.883 15.007L24 15L23.883 15.007Z" fill="#E3964A"/>
</svg>
