<svg width="48" height="48" viewBox="0 0 48 48" fill="none" xmlns="http://www.w3.org/2000/svg">
<g filter="url(#filter0_b_436_5055)">
<rect width="48" height="48" rx="8" fill="#E3964A" fill-opacity="0.24"/>
</g>
<path d="M33.5 18C33.5 18.2449 33.41 18.4813 33.2473 18.6644C33.0845 18.8474 32.8603 18.9643 32.617 18.993L32.5 19H31.655L30.424 31.52C30.357 32.1994 30.0397 32.8295 29.5338 33.2879C29.0279 33.7462 28.3697 34.0001 27.687 34H20.313C19.6303 34.0001 18.9721 33.7462 18.4662 33.2879C17.9603 32.8295 17.643 32.1994 17.576 31.52L16.345 19H15.5C15.2348 19 14.9804 18.8946 14.7929 18.7071C14.6054 18.5196 14.5 18.2652 14.5 18C14.5 17.7348 14.6054 17.4804 14.7929 17.2929C14.9804 17.1054 15.2348 17 15.5 17H20.5C20.5 16.5404 20.5905 16.0852 20.7664 15.6606C20.9423 15.236 21.2001 14.8501 21.5251 14.5251C21.8501 14.2001 22.236 13.9423 22.6606 13.7664C23.0852 13.5905 23.5404 13.5 24 13.5C24.4596 13.5 24.9148 13.5905 25.3394 13.7664C25.764 13.9423 26.1499 14.2001 26.4749 14.5251C26.7999 14.8501 27.0577 15.236 27.2336 15.6606C27.4095 16.0852 27.5 16.5404 27.5 17H32.5C32.7652 17 33.0196 17.1054 33.2071 17.2929C33.3946 17.4804 33.5 17.7348 33.5 18ZM26.25 21.25C26.0688 21.25 25.8937 21.3156 25.7571 21.4348C25.6205 21.5539 25.5316 21.7184 25.507 21.898L25.5 22V29L25.507 29.102C25.5317 29.2815 25.6206 29.446 25.7571 29.5651C25.8937 29.6842 26.0688 29.7498 26.25 29.7498C26.4312 29.7498 26.6063 29.6842 26.7429 29.5651C26.8794 29.446 26.9683 29.2815 26.993 29.102L27 29V22L26.993 21.898C26.9684 21.7184 26.8795 21.5539 26.7429 21.4348C26.6063 21.3156 26.4312 21.25 26.25 21.25V21.25ZM21.75 21.25C21.5688 21.25 21.3937 21.3156 21.2571 21.4348C21.1205 21.5539 21.0316 21.7184 21.007 21.898L21 22V29L21.007 29.102C21.0317 29.2815 21.1206 29.446 21.2571 29.5651C21.3937 29.6842 21.5688 29.7498 21.75 29.7498C21.9312 29.7498 22.1063 29.6842 22.2429 29.5651C22.3794 29.446 22.4683 29.2815 22.493 29.102L22.5 29V22L22.493 21.898C22.4684 21.7184 22.3795 21.5539 22.2429 21.4348C22.1063 21.3156 21.9312 21.25 21.75 21.25V21.25ZM24 15.5C23.6022 15.5 23.2206 15.658 22.9393 15.9393C22.658 16.2206 22.5 16.6022 22.5 17H25.5C25.5 16.6022 25.342 16.2206 25.0607 15.9393C24.7794 15.658 24.3978 15.5 24 15.5Z" fill="#E3964A" fill-opacity="0.92"/>
<defs>
<filter id="filter0_b_436_5055" x="-8" y="-8" width="64" height="64" filterUnits="userSpaceOnUse" color-interpolation-filters="sRGB">
<feFlood flood-opacity="0" result="BackgroundImageFix"/>
<feGaussianBlur in="BackgroundImageFix" stdDeviation="4"/>
<feComposite in2="SourceAlpha" operator="in" result="effect1_backgroundBlur_436_5055"/>
<feBlend mode="normal" in="SourceGraphic" in2="effect1_backgroundBlur_436_5055" result="shape"/>
</filter>
</defs>
</svg>
