<svg width="48" height="48" viewBox="0 0 48 48" fill="none" xmlns="http://www.w3.org/2000/svg">
<g filter="url(#filter0_b_436_5058)">
<rect width="48" height="48" rx="8" fill="#E3964A" fill-opacity="0.24"/>
</g>
<path d="M24 14V20C24 20.5304 24.2107 21.0391 24.5858 21.4142C24.9609 21.7893 25.4696 22 26 22H32V32C32 32.5304 31.7893 33.0391 31.4142 33.4142C31.0391 33.7893 30.5304 34 30 34H23.19C24.225 32.9226 24.8573 31.5215 24.9804 30.0326C25.1035 28.5436 24.71 27.0578 23.866 25.825C23.022 24.5922 21.779 23.6878 20.3464 23.264C18.9138 22.8402 17.3789 22.9228 16 23.498V16C16 15.4696 16.2107 14.9609 16.5858 14.5858C16.9609 14.2107 17.4696 14 18 14H24ZM25.5 14.5V20C25.5 20.1326 25.5527 20.2598 25.6464 20.3536C25.7402 20.4473 25.8674 20.5 26 20.5H31.5L25.5 14.5ZM24 29.5C24 30.2223 23.8577 30.9375 23.5813 31.6048C23.3049 32.272 22.8998 32.8784 22.3891 33.3891C21.8784 33.8998 21.272 34.3049 20.6048 34.5813C19.9375 34.8577 19.2223 35 18.5 35C17.7777 35 17.0625 34.8577 16.3952 34.5813C15.728 34.3049 15.1216 33.8998 14.6109 33.3891C14.1002 32.8784 13.6951 32.272 13.4187 31.6048C13.1423 30.9375 13 30.2223 13 29.5C13 28.0413 13.5795 26.6424 14.6109 25.6109C15.6424 24.5795 17.0413 24 18.5 24C19.9587 24 21.3576 24.5795 22.3891 25.6109C23.4205 26.6424 24 28.0413 24 29.5V29.5ZM18.5 26C18.3674 26 18.2402 26.0527 18.1464 26.1464C18.0527 26.2402 18 26.3674 18 26.5V30.5C18 30.6326 18.0527 30.7598 18.1464 30.8536C18.2402 30.9473 18.3674 31 18.5 31C18.6326 31 18.7598 30.9473 18.8536 30.8536C18.9473 30.7598 19 30.6326 19 30.5V26.5C19 26.3674 18.9473 26.2402 18.8536 26.1464C18.7598 26.0527 18.6326 26 18.5 26ZM18.5 33.125C18.6658 33.125 18.8247 33.0592 18.9419 32.9419C19.0592 32.8247 19.125 32.6658 19.125 32.5C19.125 32.3342 19.0592 32.1753 18.9419 32.0581C18.8247 31.9408 18.6658 31.875 18.5 31.875C18.3342 31.875 18.1753 31.9408 18.0581 32.0581C17.9408 32.1753 17.875 32.3342 17.875 32.5C17.875 32.6658 17.9408 32.8247 18.0581 32.9419C18.1753 33.0592 18.3342 33.125 18.5 33.125V33.125Z" fill="#E3964A" fill-opacity="0.92"/>
<defs>
<filter id="filter0_b_436_5058" x="-8" y="-8" width="64" height="64" filterUnits="userSpaceOnUse" color-interpolation-filters="sRGB">
<feFlood flood-opacity="0" result="BackgroundImageFix"/>
<feGaussianBlur in="BackgroundImageFix" stdDeviation="4"/>
<feComposite in2="SourceAlpha" operator="in" result="effect1_backgroundBlur_436_5058"/>
<feBlend mode="normal" in="SourceGraphic" in2="effect1_backgroundBlur_436_5058" result="shape"/>
</filter>
</defs>
</svg>
