<svg width="25" height="24" viewBox="0 0 25 24" fill="none" xmlns="http://www.w3.org/2000/svg">
<path d="M10.5138 2.5C11.9117 2.49994 13.2819 2.89061 14.4696 3.62792C15.6574 4.36523 16.6154 5.41983 17.2356 6.6727C17.8558 7.92558 18.1135 9.32686 17.9796 10.7184C17.8457 12.11 17.3255 13.4364 16.4778 14.548L21.2208 19.293C21.4001 19.473 21.5042 19.7144 21.512 19.9684C21.5197 20.2223 21.4305 20.4697 21.2625 20.6603C21.0945 20.8508 20.8602 20.9703 20.6073 20.9944C20.3544 21.0185 20.1018 20.9454 19.9008 20.79L19.8068 20.707L15.0618 15.964C14.1148 16.6861 13.0094 17.1723 11.8372 17.3824C10.665 17.5925 9.45959 17.5204 8.32077 17.1721C7.18194 16.8238 6.14242 16.2094 5.28822 15.3795C4.43402 14.5497 3.78971 13.5285 3.40859 12.4002C3.02748 11.2719 2.92052 10.0691 3.09656 8.89131C3.2726 7.7135 3.72659 6.59454 4.42096 5.62703C5.11533 4.65951 6.03011 3.87126 7.08961 3.32749C8.14911 2.78372 9.32287 2.50006 10.5138 2.5ZM10.5138 4.5C9.05507 4.5 7.65613 5.07946 6.62468 6.11091C5.59323 7.14236 5.01377 8.54131 5.01377 10C5.01377 11.4587 5.59323 12.8576 6.62468 13.8891C7.65613 14.9205 9.05507 15.5 10.5138 15.5C11.9725 15.5 13.3714 14.9205 14.4029 13.8891C15.4343 12.8576 16.0138 11.4587 16.0138 10C16.0138 8.54131 15.4343 7.14236 14.4029 6.11091C13.3714 5.07946 11.9725 4.5 10.5138 4.5Z" fill="black" fill-opacity="0.36"/>
</svg>
