<svg width="12" height="12" viewBox="0 0 12 12" fill="none" xmlns="http://www.w3.org/2000/svg">
<path d="M6 0C6.11935 0 6.23381 0.0474105 6.3182 0.131802C6.40259 0.216193 6.45 0.330653 6.45 0.45V1.35C6.45 1.46935 6.40259 1.58381 6.3182 1.6682C6.23381 1.75259 6.11935 1.8 6 1.8C5.88065 1.8 5.76619 1.75259 5.6818 1.6682C5.59741 1.58381 5.55 1.46935 5.55 1.35V0.45C5.55 0.330653 5.59741 0.216193 5.6818 0.131802C5.76619 0.0474105 5.88065 0 6 0ZM9 6C9 6.79565 8.68393 7.55871 8.12132 8.12132C7.55871 8.68393 6.79565 9 6 9C5.20435 9 4.44129 8.68393 3.87868 8.12132C3.31607 7.55871 3 6.79565 3 6C3 5.20435 3.31607 4.44129 3.87868 3.87868C4.44129 3.31607 5.20435 3 6 3C6.79565 3 7.55871 3.31607 8.12132 3.87868C8.68393 4.44129 9 5.20435 9 6V6ZM11.55 6.45C11.6693 6.45 11.7838 6.40259 11.8682 6.3182C11.9526 6.23381 12 6.11935 12 6C12 5.88065 11.9526 5.76619 11.8682 5.6818C11.7838 5.59741 11.6693 5.55 11.55 5.55H10.65C10.5307 5.55 10.4162 5.59741 10.3318 5.6818C10.2474 5.76619 10.2 5.88065 10.2 6C10.2 6.11935 10.2474 6.23381 10.3318 6.3182C10.4162 6.40259 10.5307 6.45 10.65 6.45H11.55ZM6 10.2C6.11935 10.2 6.23381 10.2474 6.3182 10.3318C6.40259 10.4162 6.45 10.5307 6.45 10.65V11.55C6.45 11.6693 6.40259 11.7838 6.3182 11.8682C6.23381 11.9526 6.11935 12 6 12C5.88065 12 5.76619 11.9526 5.6818 11.8682C5.59741 11.7838 5.55 11.6693 5.55 11.55V10.65C5.55 10.5307 5.59741 10.4162 5.6818 10.3318C5.76619 10.2474 5.88065 10.2 6 10.2ZM1.35 6.45C1.46935 6.45 1.58381 6.40259 1.6682 6.3182C1.75259 6.23381 1.8 6.11935 1.8 6C1.8 5.88065 1.75259 5.76619 1.6682 5.6818C1.58381 5.59741 1.46935 5.55 1.35 5.55H0.45C0.330653 5.55 0.216193 5.59741 0.131802 5.6818C0.0474105 5.76619 0 5.88065 0 6C0 6.11935 0.0474105 6.23381 0.131802 6.3182C0.216193 6.40259 0.330653 6.45 0.45 6.45H1.35ZM1.332 1.332C1.41638 1.24773 1.53075 1.2004 1.65 1.2004C1.76925 1.2004 1.88362 1.24773 1.968 1.332L2.868 2.232C2.94749 2.3173 2.99076 2.43013 2.98871 2.54671C2.98665 2.66329 2.93942 2.77453 2.85697 2.85697C2.77453 2.93942 2.66329 2.98665 2.54671 2.98871C2.43013 2.99076 2.3173 2.94749 2.232 2.868L1.332 1.968C1.24773 1.88362 1.2004 1.76925 1.2004 1.65C1.2004 1.53075 1.24773 1.41638 1.332 1.332V1.332ZM1.968 10.668C1.9268 10.7122 1.87712 10.7477 1.82192 10.7723C1.76672 10.7969 1.70714 10.8101 1.64671 10.8112C1.58629 10.8122 1.52627 10.8011 1.47024 10.7785C1.41421 10.7558 1.36331 10.7222 1.32058 10.6794C1.27785 10.6367 1.24416 10.5858 1.22153 10.5298C1.19889 10.4737 1.18778 10.4137 1.18885 10.3533C1.18991 10.2929 1.20314 10.2333 1.22773 10.1781C1.25233 10.1229 1.28779 10.0732 1.332 10.032L2.232 9.132C2.2732 9.08779 2.32288 9.05233 2.37808 9.02773C2.43328 9.00314 2.49286 8.98991 2.55329 8.98885C2.61371 8.98778 2.67373 8.99889 2.72976 9.02153C2.78579 9.04416 2.83669 9.07785 2.87942 9.12058C2.92215 9.16331 2.95584 9.21421 2.97847 9.27024C3.00111 9.32628 3.01222 9.38629 3.01115 9.44671C3.01009 9.50714 2.99686 9.56672 2.97227 9.62192C2.94767 9.67712 2.91221 9.7268 2.868 9.768L1.968 10.668ZM10.668 1.332C10.5836 1.24773 10.4693 1.2004 10.35 1.2004C10.2308 1.2004 10.1164 1.24773 10.032 1.332L9.132 2.232C9.05251 2.3173 9.00924 2.43013 9.0113 2.54671C9.01335 2.66329 9.06058 2.77453 9.14303 2.85697C9.22548 2.93942 9.33671 2.98665 9.45329 2.98871C9.56987 2.99076 9.6827 2.94749 9.768 2.868L10.668 1.968C10.7523 1.88362 10.7996 1.76925 10.7996 1.65C10.7996 1.53075 10.7523 1.41638 10.668 1.332V1.332ZM10.032 10.668C10.0732 10.7122 10.1229 10.7477 10.1781 10.7723C10.2333 10.7969 10.2929 10.8101 10.3533 10.8112C10.4137 10.8122 10.4737 10.8011 10.5298 10.7785C10.5858 10.7558 10.6367 10.7222 10.6794 10.6794C10.7222 10.6367 10.7558 10.5858 10.7785 10.5298C10.8011 10.4737 10.8122 10.4137 10.8112 10.3533C10.8101 10.2929 10.7969 10.2333 10.7723 10.1781C10.7477 10.1229 10.7122 10.0732 10.668 10.032L9.768 9.132C9.7268 9.08779 9.67712 9.05233 9.62192 9.02773C9.56672 9.00314 9.50714 8.98991 9.44671 8.98885C9.38629 8.98778 9.32628 8.99889 9.27024 9.02153C9.21421 9.04416 9.16331 9.07785 9.12058 9.12058C9.07785 9.16331 9.04416 9.21421 9.02153 9.27024C8.99889 9.32628 8.98778 9.38629 8.98885 9.44671C8.98991 9.50714 9.00314 9.56672 9.02773 9.62192C9.05233 9.67712 9.08779 9.7268 9.132 9.768L10.032 10.668Z" fill="#E3964A"/>
</svg>
