<svg width="13" height="14" viewBox="0 0 13 14" fill="none" xmlns="http://www.w3.org/2000/svg">
<path d="M12.0501 10.4968C10.0956 13.8468 5.76694 14.9946 2.3816 13.0605C1.47135 12.5417 0.689721 11.8283 0.0938066 10.9723C0.0476291 10.906 0.0174626 10.8302 0.00563768 10.7505C-0.00618725 10.6709 0.000645729 10.5896 0.0256087 10.513C0.0505717 10.4364 0.0929965 10.3665 0.149606 10.3087C0.206216 10.2509 0.275496 10.2067 0.352094 10.1796C3.01777 9.23568 4.44578 8.14189 5.27442 6.57613C6.14623 4.92844 6.37197 3.12389 5.76199 0.649898C5.74232 0.57027 5.74175 0.487191 5.76035 0.40731C5.77894 0.327428 5.81617 0.252963 5.86906 0.189873C5.92195 0.126783 5.98903 0.0768192 6.06493 0.0439815C6.14083 0.0111437 6.22344 -0.00365669 6.30616 0.000764506C7.41684 0.0599248 8.4976 0.378346 9.4601 0.929998C12.8454 2.86409 14.0053 7.14753 12.0501 10.4968V10.4968Z" fill="#969696"/>
</svg>
