<svg width="24" height="24" viewBox="0 0 24 24" fill="none" xmlns="http://www.w3.org/2000/svg">
<path d="M12.006 19.012H11.986C11.924 19.012 5.721 19 4.156 18.575C3.73314 18.4611 3.34762 18.2381 3.03804 17.9283C2.72846 17.6186 2.50568 17.2329 2.392 16.81C2.11059 15.2224 1.97469 13.6123 1.986 12C1.97874 10.385 2.11831 8.77271 2.403 7.183C2.51989 6.75937 2.7437 6.3729 3.05295 6.06067C3.36221 5.74844 3.74652 5.52094 4.169 5.4C5.691 5 11.723 5 11.979 5H12C12.063 5 18.282 5.012 19.831 5.437C20.69 5.67 21.361 6.341 21.593 7.2C21.883 8.794 22.02 10.411 22 12.031C22.007 13.644 21.8671 15.2543 21.582 16.842C21.4668 17.2645 21.2432 17.6494 20.9332 17.9587C20.6232 18.268 20.2377 18.4908 19.815 18.605C18.295 19.008 12.262 19.012 12.006 19.012ZM10.006 9.005L10.001 15.005L15.213 12.005L10.006 9.005Z" fill="#969696"/>
</svg>
